<svg width="512" height="512" viewBox="0 0 512 512" fill="none" xmlns="http://www.w3.org/2000/svg">
<path d="M257.987 489.118L258.678 490.5H260.223H400.169H404.214H404.223V488.004L406.45 489.118C409.107 483.803 410.491 477.942 410.491 472C410.491 466.258 409.199 460.591 406.714 455.42V245.47C406.714 233.376 404.055 221.429 398.925 210.477C393.796 199.526 386.323 189.837 377.034 182.095C377.032 182.094 377.031 182.093 377.029 182.091L376.537 181.678L376.529 181.671C370.955 177.026 366.47 171.212 363.392 164.64C360.314 158.069 358.719 150.901 358.719 143.645V56V53.5H356.219H308.219H305.719V56V143.645C305.719 150.901 304.123 158.069 301.045 164.64C297.967 171.212 293.482 177.026 287.908 181.671L287.9 181.678L287.407 182.091C287.406 182.093 287.405 182.094 287.403 182.095C278.114 189.837 270.641 199.526 265.512 210.477C260.382 221.429 257.723 233.376 257.723 245.47V455.42C255.238 460.591 253.946 466.258 253.946 472C253.946 477.942 255.329 483.803 257.987 489.118Z" fill="#961B20" stroke="black" stroke-width="5"/>
<path d="M308.223 21.5H305.723V24V56V58.5H308.223H356.223H358.723V56V24V21.5H356.223H308.223Z" fill="#C52835" stroke="black" stroke-width="5"/>
<path d="M308.179 112.023L332.175 88.027L356.171 112.023L332.175 136.02L308.179 112.023Z" fill="#C38325"/>
<path d="M319.454 112.023L332.176 99.3016L344.897 112.023L332.176 124.745L319.454 112.023Z" fill="#D18D28"/>
<path d="M260.223 330.909L332.223 416L404.223 330.909V294.545L332.223 216L260.223 294.545V330.909Z" fill="#D18D28"/>
<path d="M272.751 328.315L332.223 398.599L391.695 328.315L391.694 298.279L332.223 233.401L272.751 298.279V328.315Z" fill="#EA9D2D"/>
<path d="M332.223 320C345.478 320 356.223 309.255 356.223 296C356.223 282.745 345.478 272 332.223 272C318.968 272 308.223 282.745 308.223 296C308.223 309.255 318.968 320 332.223 320Z" fill="#D18D28"/>
<path d="M198.48 472.708L181.815 455.008V352V349.5H179.315H147.315H144.815V352V454.964L127.204 472.575L128.969 474.34L127.204 472.575C123.113 476.666 120.815 482.215 120.815 488L120.815 490.5H123.315H201.915H204.415V488V487.661V487.66C204.414 482.102 202.291 476.754 198.48 472.708Z" fill="#E2E2E2" stroke="black" stroke-width="5"/>
<path d="M213.755 199.458L213.32 197.5H211.315H115.315H113.31L112.875 199.458L100.431 255.458L99.7545 258.5H102.871H223.76H226.877L226.2 255.458L213.755 199.458Z" fill="#E2E2E2" stroke="black" stroke-width="5"/>
<path d="M226.2 255.458L225.765 253.5H223.76H102.871H100.866L100.431 255.458L95.1855 279.058L95.1855 279.058C91.2142 296.928 94.3774 315.642 104.001 331.214C113.625 346.787 128.949 357.985 146.709 362.425L147.007 362.5H147.315H179.315H179.623L179.921 362.425C197.681 357.985 213.005 346.787 222.629 331.214C232.253 315.642 235.417 296.928 231.445 279.058L226.2 255.458Z" fill="#C52835" stroke="black" stroke-width="5"/>
<path d="M312 464H296C293.878 464 291.843 463.157 290.343 461.657C288.843 460.157 288 458.122 288 456C288 453.878 288.843 451.843 290.343 450.343C291.843 448.843 293.878 448 296 448H312C314.122 448 316.157 448.843 317.657 450.343C319.157 451.843 320 453.878 320 456C320 458.122 319.157 460.157 317.657 461.657C316.157 463.157 314.122 464 312 464Z" fill="#C52835"/>
<path d="M376 464H344C341.878 464 339.843 463.157 338.343 461.657C336.843 460.157 336 458.122 336 456C336 453.878 336.843 451.843 338.343 450.343C339.843 448.843 341.878 448 344 448H376C378.122 448 380.157 448.843 381.657 450.343C383.157 451.843 384 453.878 384 456C384 458.122 383.157 460.157 381.657 461.657C380.157 463.157 378.122 464 376 464Z" fill="#C52835"/>
<path d="M176 336C174.099 336.001 172.26 335.325 170.812 334.094C169.364 332.863 168.402 331.156 168.098 329.28C167.794 327.404 168.168 325.48 169.153 323.855C170.138 322.229 171.669 321.007 173.473 320.408L174.7 320C179.74 318.325 184.124 315.105 187.23 310.797C190.335 306.488 192.004 301.311 192 296C192 293.878 192.843 291.843 194.343 290.343C195.843 288.843 197.878 288 200 288C202.122 288 204.157 288.843 205.657 290.343C207.157 291.843 208 293.878 208 296C208.008 304.67 205.284 313.121 200.215 320.154C195.145 327.188 187.989 332.445 179.762 335.179L178.528 335.59C177.713 335.862 176.859 336 176 336V336Z" fill="#E82F3E"/>
</svg>
