<svg width="996" height="837" viewBox="0 0 996 837" fill="none" xmlns="http://www.w3.org/2000/svg">
<g clip-path="url(#clip0)">
<ellipse cx="539" cy="366.5" rx="333" ry="309.5" fill="url(#paint0_linear)"/>
<path d="M640.728 19.902C636.504 19.2815 632.191 19.85 628.271 21.5437C624.352 23.2374 620.982 25.9893 618.54 29.4909C611.282 40.2254 614.704 55.285 622.329 65.7619C629.954 76.2388 641 83.5988 650.629 92.2701C663.562 103.917 674.317 118.609 678.52 135.499C682.723 152.388 679.598 171.601 667.937 184.522C657.113 196.514 640.844 201.684 625.38 206.357" stroke="white" stroke-miterlimit="10"/>
<path d="M651.173 31.7853C660.641 33.727 669.081 31.573 670.024 26.9743C670.967 22.3756 664.056 17.0736 654.588 15.1319C645.121 13.1902 636.681 15.3442 635.738 19.9429C634.795 24.5416 641.705 29.8437 651.173 31.7853Z" fill="#005A14"/>
<path d="M653.638 89.4561C663.106 91.3978 671.545 89.2438 672.488 84.6451C673.432 80.0464 666.521 74.7444 657.053 72.8027C647.585 70.861 639.145 73.015 638.202 77.6137C637.259 82.2124 644.17 87.5144 653.638 89.4561Z" fill="#005A14"/>
<path d="M620.482 91.8439C629.95 93.7856 638.39 91.6316 639.333 87.0329C640.276 82.4342 633.365 77.1322 623.897 75.1905C614.429 73.2488 605.989 75.4028 605.046 80.0015C604.103 84.6002 611.014 89.9022 620.482 91.8439Z" fill="#005A14"/>
<path d="M660.02 147.931C669.488 149.872 677.928 147.718 678.871 143.12C679.814 138.521 672.904 133.219 663.436 131.277C653.968 129.336 645.528 131.489 644.585 136.088C643.642 140.687 650.552 145.989 660.02 147.931Z" fill="#005A14"/>
<path d="M694.307 154.962C703.775 156.904 712.215 154.75 713.158 150.151C714.101 145.552 707.19 140.25 697.722 138.309C688.254 136.367 679.814 138.521 678.871 143.12C677.928 147.718 684.839 153.02 694.307 154.962Z" fill="#005A14"/>
<path d="M715.453 294.849C711.527 293.171 707.212 292.619 702.99 293.256C698.768 293.892 694.807 295.692 691.551 298.454C681.793 306.979 681.256 322.414 685.953 334.49C690.65 346.567 699.45 356.504 706.545 367.346C716.076 381.91 722.722 398.861 722.473 416.264C722.223 433.667 714.296 451.445 699.721 460.959C686.194 469.79 669.145 470.634 653 471.203" stroke="white" stroke-miterlimit="10"/>
<path d="M741.972 309.168C744.058 304.963 738.73 298.072 730.072 293.777C721.414 289.482 712.704 289.409 710.618 293.615C708.531 297.82 713.859 304.711 722.517 309.006C731.175 313.301 739.885 313.374 741.972 309.168Z" fill="#005A14"/>
<path d="M729.627 365.556C731.713 361.351 726.386 354.46 717.727 350.165C709.069 345.87 700.359 345.797 698.273 350.003C696.187 354.208 701.515 361.099 710.173 365.394C718.831 369.689 727.541 369.762 729.627 365.556Z" fill="#005A14"/>
<path d="M696.961 359.398C699.047 355.193 693.72 348.302 685.061 344.007C676.403 339.712 667.693 339.639 665.607 343.845C663.521 348.05 668.848 354.941 677.507 359.236C686.165 363.531 694.875 363.604 696.961 359.398Z" fill="#005A14"/>
<path d="M720.866 423.722C722.952 419.517 717.625 412.626 708.966 408.33C700.308 404.035 691.598 403.963 689.512 408.168C687.426 412.374 692.753 419.265 701.412 423.56C710.07 427.855 718.78 427.927 720.866 423.722Z" fill="#005A14"/>
<path d="M752.22 439.276C754.306 435.07 748.979 428.179 740.32 423.884C731.662 419.589 722.952 419.516 720.866 423.722C718.78 427.927 724.108 434.818 732.766 439.113C741.424 443.408 750.134 443.481 752.22 439.276Z" fill="#005A14"/>
<path d="M298.004 366.409C301.032 363.399 304.839 361.292 308.997 360.325C313.155 359.357 317.501 359.567 321.547 360.931C333.764 365.249 339.963 379.394 340.059 392.352C340.155 405.309 335.647 417.793 333.058 430.49C329.58 447.544 329.664 465.751 336.324 481.831C342.984 497.912 356.917 511.505 373.974 514.964C389.807 518.174 405.963 512.66 421.176 507.227" stroke="white" stroke-miterlimit="10"/>
<path d="M296.668 382.174C303.127 374.984 305.533 366.613 302.041 363.475C298.549 360.338 290.482 363.622 284.022 370.812C277.563 378.001 275.157 386.372 278.649 389.51C282.141 392.647 290.208 389.363 296.668 382.174Z" fill="#005A14"/>
<path d="M328.966 430.016C335.425 422.826 337.831 414.455 334.339 411.317C330.847 408.18 322.78 411.464 316.321 418.653C309.861 425.843 307.455 434.214 310.947 437.352C314.439 440.489 322.506 437.205 328.966 430.016Z" fill="#005A14"/>
<path d="M357.048 412.228C363.507 405.039 365.913 396.667 362.421 393.53C358.93 390.392 350.862 393.677 344.403 400.866C337.943 408.055 335.537 416.427 339.029 419.564C342.521 422.702 350.588 419.417 357.048 412.228Z" fill="#005A14"/>
<path d="M358.591 480.833C365.05 473.643 367.456 465.272 363.964 462.134C360.472 458.997 352.405 462.281 345.945 469.471C339.486 476.66 337.08 485.031 340.572 488.169C344.064 491.306 352.131 488.022 358.591 480.833Z" fill="#005A14"/>
<path d="M335.198 506.867C341.658 499.678 344.064 491.306 340.572 488.169C337.08 485.031 329.012 488.316 322.553 495.505C316.093 502.694 313.687 511.066 317.179 514.203C320.671 517.341 328.738 514.056 335.198 506.867Z" fill="#005A14"/>
<path d="M126.501 665H817.501" stroke="#FF9595" stroke-miterlimit="10"/>
<path d="M183.653 572.445V600.575L198.098 617.302C198.098 617.302 204.18 615.021 204.18 599.815L206.461 577.767L183.653 572.445Z" fill="#A0616A"/>
<path d="M198.098 600.575C198.098 600.575 174.529 584.609 173.769 579.287C173.008 573.965 139.556 549.636 144.878 564.842C150.2 580.048 166.926 586.89 166.926 586.89C166.926 586.89 179.851 621.863 191.255 621.103C202.66 620.343 202.66 605.897 198.098 600.575Z" fill="#A0616A"/>
<path d="M211.783 771.64L214.064 785.325L201.899 782.284V771.64H211.783Z" fill="#3F3D56"/>
<path d="M209.502 779.243C209.502 779.243 195.443 770.913 194.87 774.698C194.297 778.483 188.214 792.928 185.173 794.449C182.132 795.969 178.331 812.696 185.173 811.935C190.473 811.347 209.911 801.18 218.407 796.625C219.453 796.062 220.243 795.118 220.614 793.99C220.986 792.861 220.91 791.633 220.404 790.558C219.905 789.637 219.561 788.639 219.386 787.606C219.386 786.086 209.502 779.243 209.502 779.243Z" fill="#2F2E41"/>
<path d="M216.345 624.905C216.345 624.905 160.844 650.754 166.166 670.522C171.488 690.289 191.255 773.921 191.255 773.921C191.255 773.921 213.304 779.243 214.824 773.921C216.345 768.599 200.379 685.728 201.9 682.687C203.42 679.645 231.551 659.878 231.551 659.878L289.333 635.549L265.003 612.74L216.345 624.905Z" fill="#2F2E41"/>
<path d="M174.529 776.202L167.686 793.689L179.851 799.011L187.454 785.325L174.529 776.202Z" fill="#3F3D56"/>
<path d="M215.585 500.217C215.585 500.217 222.427 509.341 217.105 513.902C211.783 518.464 215.585 535.191 215.585 535.191L222.427 554.198L249.798 548.876V517.704L248.277 502.498C248.277 502.498 234.592 489.573 233.071 479.689C231.551 469.806 215.585 500.217 215.585 500.217Z" fill="#A0616A"/>
<path opacity="0.1" d="M215.585 500.217C215.585 500.217 222.427 509.341 217.105 513.902C211.783 518.464 215.585 535.191 215.585 535.191L222.427 554.198L249.798 548.876V517.704L248.277 502.498C248.277 502.498 234.592 489.573 233.071 479.689C231.551 469.806 215.585 500.217 215.585 500.217Z" fill="black"/>
<path d="M261.202 618.822C261.202 618.822 225.468 658.357 225.468 659.878C225.468 661.398 206.461 692.57 206.461 692.57L169.207 775.442C169.207 775.442 183.653 795.209 189.735 793.689C195.817 792.168 239.154 703.975 239.154 703.975C239.154 703.975 246.756 684.207 267.284 679.645C287.812 675.084 303.778 659.118 296.175 640.871C288.572 622.624 261.202 618.822 261.202 618.822Z" fill="#2F2E41"/>
<path d="M215.585 505.539C229.021 505.539 239.914 494.647 239.914 481.21C239.914 467.773 229.021 456.881 215.585 456.881C202.148 456.881 191.255 467.773 191.255 481.21C191.255 494.647 202.148 505.539 215.585 505.539Z" fill="#A0616A"/>
<path d="M216.345 520.745C216.345 520.745 219.386 538.232 222.427 539.752C225.468 541.273 227.749 546.595 234.592 538.992C241.435 531.389 247.517 516.183 247.517 516.183L271.086 545.074L273.367 624.905C273.367 624.905 246.757 618.062 238.393 624.905C230.03 631.747 211.783 630.987 211.783 630.987L215.585 615.781L212.544 589.931L213.304 566.362L214.064 549.636L216.345 520.745Z" fill="#F2F2F2"/>
<path d="M219.023 507.948C219.023 507.948 208.742 513.142 207.982 516.183C207.222 519.224 193.536 525.307 193.536 525.307C193.536 525.307 188.214 530.629 188.214 533.67C188.214 536.711 206.461 571.684 206.461 571.684C206.461 571.684 210.263 595.253 208.742 599.815C207.222 604.377 211.783 621.863 211.783 621.863L202.66 632.507H211.023C211.023 632.507 220.146 627.946 220.146 625.665C220.146 623.384 218.626 607.418 217.866 600.575C217.105 593.733 217.105 569.403 218.626 561.04C220.146 552.677 219.386 530.629 219.386 525.307C219.386 519.985 219.023 507.948 219.023 507.948Z" fill="#3F3D56"/>
<path d="M242.575 496.403C242.575 496.403 245.996 497.176 255.88 500.217C265.764 503.259 280.969 507.82 286.291 513.903C290.027 518.401 293.336 523.237 296.175 528.348L293.134 583.089C293.134 583.089 299.216 594.493 298.456 600.575C297.696 606.658 291.613 607.418 296.175 620.343C300.737 633.268 309.86 644.672 301.497 646.193C293.134 647.713 271.086 642.391 261.202 645.432C251.318 648.474 239.914 634.028 239.914 634.028C239.914 634.028 255.12 635.549 252.839 629.466C250.558 623.384 225.468 554.958 230.79 539.752C236.112 524.547 242.575 496.403 242.575 496.403Z" fill="#3F3D56"/>
<path d="M192.016 529.869L188.214 532.91C188.214 532.91 177.57 570.924 180.611 574.726C183.652 578.527 207.982 586.89 209.502 581.568C211.023 576.246 192.016 529.869 192.016 529.869Z" fill="#3F3D56"/>
<path d="M304.538 556.479C304.538 556.479 315.943 589.171 315.943 598.294C315.943 607.418 314.422 660.638 314.422 660.638C314.422 660.638 313.662 683.447 297.696 674.323C281.73 665.2 297.696 659.117 297.696 659.117C297.696 659.117 296.935 599.055 290.853 590.691C284.771 582.328 282.49 570.164 282.49 570.164L304.538 556.479Z" fill="#A0616A"/>
<path d="M179.851 792.928C179.851 792.928 168.447 786.846 166.166 791.408C163.885 795.969 151.72 821.059 153.241 824.1C154.762 827.141 163.125 839.306 173.009 836.265C182.892 833.224 183.653 817.258 183.653 817.258L184.413 799.011L179.851 792.928Z" fill="#2F2E41"/>
<path d="M210.821 475.333C212.497 476.122 214.485 476.593 215.538 478.117C216.318 479.246 216.396 480.714 216.965 481.962C217.587 483.199 218.656 484.152 219.956 484.627C221.256 485.103 222.688 485.065 223.96 484.521C224.271 483.006 225.152 481.669 226.42 480.785C227.061 480.363 227.82 480.159 228.586 480.201C229.351 480.243 230.083 480.529 230.674 481.018C232.241 482.512 231.686 485.118 232.418 487.155C233.104 488.589 234.049 489.884 235.204 490.976C236.868 492.896 238.194 495.148 240.198 496.71C242.202 498.272 245.241 498.949 247.232 497.37C248.906 496.043 249.253 493.594 248.846 491.496C248.44 489.399 247.431 487.467 246.863 485.408C245.015 478.716 247.961 471.572 247.049 464.69C245.882 455.871 238.386 448.906 230.02 445.883C226.539 444.465 222.728 444.061 219.027 444.718C215.201 445.572 211.932 448.008 208.268 449.401C204.349 450.891 200.088 451.151 195.988 452.022C191.887 452.893 187.667 454.577 185.287 458.028C183.628 460.435 183.057 463.425 181.682 466.005C180.098 468.95 177.534 471.248 174.433 472.499L178.768 472.252C178.041 474.187 176.856 475.917 175.314 477.293C177.347 477.708 179.46 477.428 181.315 476.5C181.281 477.391 181.065 478.265 180.681 479.07C180.296 479.874 179.75 480.591 179.077 481.176C182.413 481.076 185.931 480.922 188.749 479.135C190.13 478.26 191.256 477.041 192.555 476.049C195.324 473.934 198.759 472.931 202.109 471.969C203.867 471.465 205.984 470.763 207.574 471.894C208.899 472.836 209.108 474.527 210.821 475.333Z" fill="black"/>
<path d="M284.771 519.225L296.175 528.348L311.381 563.321C311.381 563.321 290.093 580.048 284.771 577.767C279.449 575.486 270.325 535.191 270.325 535.191L284.771 519.225Z" fill="#3F3D56"/>
<path d="M613.25 200.766C601.812 200.766 575.125 200.766 575.125 200.766V74.4375H498.875V200.766C498.875 200.766 472.188 200.766 460.75 200.766C437.875 200.766 422.625 212.797 422.625 236.859C422.625 308.794 422.625 560.103 422.625 665.262C459.324 672.216 497.594 676 537 676C576.406 676 614.684 672.216 651.375 665.262C651.375 560.115 651.375 308.8 651.375 236.859C651.375 212.797 636.125 200.766 613.25 200.766Z" fill="#1A1A1A"/>
<path d="M552.25 74.4375V200.766C552.25 200.766 563.909 200.766 575.125 200.766V74.4375H552.25Z" fill="#0D0D0D"/>
<path d="M613.25 200.766C607.653 200.766 598.374 200.766 590.375 200.766C613.25 200.766 628.5 212.797 628.5 236.859C628.5 309.691 628.5 566.443 628.5 669.136C636.194 667.993 643.819 666.694 651.375 665.25C651.375 560.103 651.375 308.788 651.375 236.847C651.375 212.797 636.125 200.766 613.25 200.766Z" fill="#0D0D0D"/>
<path opacity="0.2" d="M514.125 212.797H483.625C463.983 212.797 437.875 216.539 437.875 248.891V668.035C442.915 668.859 448.032 669.521 453.125 670.213V248.891C453.125 228.762 464.311 224.828 483.625 224.828H521.75C525.967 224.828 529.375 222.133 529.375 218.812V110.531H514.125V212.797Z" fill="#F5F5F5"/>
<path d="M651.375 315.062H422.625V477.484H651.375V315.062Z" fill="#992B1F"/>
<path d="M651.375 333.109H422.625V459.438H651.375V333.109Z" fill="#FFE1D9"/>
<path d="M590.375 38.3438C590.375 44.9609 583.513 50.375 575.125 50.375H498.875C490.487 50.375 483.625 44.9609 483.625 38.3438V-21.8125C483.625 -28.4297 490.487 -33.8438 498.875 -33.8438H575.125C583.513 -33.8438 590.375 -28.4297 590.375 -21.8125V38.3438Z" fill="#CC584C"/>
<path d="M575.125 -33.8438H559.875C568.263 -33.8438 575.125 -28.4297 575.125 -21.8125V38.3438C575.125 44.9609 568.263 50.375 559.875 50.375H575.125C583.513 50.375 590.375 44.9609 590.375 38.3438V-21.8125C590.375 -28.4297 583.513 -33.8438 575.125 -33.8438Z" fill="#BF5347"/>
<path d="M575.125 50.375H498.875V74.4375H575.125V50.375Z" fill="#CC584C"/>
<path d="M575.125 50.375H559.875V74.4375H575.125V50.375Z" fill="#BF5347"/>
<path d="M575.125 50.375H498.875V62.4062H575.125V50.375Z" fill="#BF5347"/>
<path d="M506.5 38.3438C502.283 38.3438 498.875 35.6487 498.875 32.3281V-21.8125C498.875 -25.1331 502.283 -27.8281 506.5 -27.8281C510.717 -27.8281 514.125 -25.1331 514.125 -21.8125V32.3281C514.125 35.6487 510.717 38.3438 506.5 38.3438Z" fill="#E66356"/>
<path d="M158.191 599.505C159.691 598.772 160.643 597.148 160.643 595.367V579.757C160.643 578.395 160.024 577.191 159.071 576.326C158.476 575.776 158.119 575.043 158.119 574.257C158.119 572.869 159.191 571.717 160.643 571.35V570.302H162.5V571.35C163.952 571.717 165.024 572.869 165.024 574.257C165.024 575.069 164.667 575.802 164.071 576.326C163.119 577.191 162.5 578.422 162.5 579.757V595.367C162.5 597.174 163.476 598.798 164.952 599.505L168.857 601.391H162.5H160.643H154.286L158.191 599.505Z" fill="#E6E9EE"/>
<path d="M173.309 541.388C174.976 545.893 175.952 551.105 175.952 556.055C175.952 568.783 169.524 575.043 161.571 575.043C153.619 575.043 147.19 568.783 147.19 556.055C147.19 551.105 148.167 545.893 149.833 541.388H173.309Z" fill="white"/>
<path d="M174.524 551.969C174.714 553.514 174.81 555.033 174.81 556.552C174.81 567.474 169.738 574.257 161.595 574.257C153.452 574.257 148.381 567.474 148.381 556.552C148.381 555.059 148.476 553.514 148.667 551.969H174.524Z" fill="#CD280D"/>
<path d="M167.19 569.726L167.405 569.49C167.571 569.307 167.786 569.071 168.048 568.731C168.309 568.39 168.619 567.971 168.952 567.474C169.286 566.976 169.619 566.4 169.929 565.745C170.571 564.436 171.167 562.838 171.548 561.057C171.738 560.167 171.881 559.25 172 558.307C172.095 557.338 172.167 556.421 172.167 555.426C172.19 554.274 172.143 553.121 172.048 551.995H170.786C170.976 553.121 171.095 554.274 171.143 555.452C171.19 556.369 171.19 557.364 171.167 558.255C171.119 559.171 171.048 560.088 170.905 560.952C170.643 562.707 170.19 564.305 169.643 565.614C169.357 566.269 169.071 566.871 168.786 567.395C168.5 567.919 168.214 568.338 167.976 568.678C167.738 569.045 167.524 569.307 167.381 569.464C167.286 569.595 167.214 569.674 167.19 569.726Z" fill="#F1543F"/>
<path d="M169.595 541.388H167.429C167.524 541.598 167.667 541.86 167.81 542.174C168.167 542.907 168.619 544.007 169.095 545.317C169.762 547.15 170.405 549.481 170.786 551.969H172.048C171.833 549.324 171.31 546.836 170.762 544.872C170.357 543.457 169.952 542.305 169.643 541.493C169.619 541.441 169.619 541.414 169.595 541.388Z" fill="#E6E9EE"/>
</g>
<defs>
<linearGradient id="paint0_linear" x1="539" y1="57" x2="539" y2="676" gradientUnits="userSpaceOnUse">
<stop offset="0.0833333" stop-color="#410000"/>
<stop offset="0.5" stop-color="#7E0101"/>
<stop offset="0.9998" stop-color="white"/>
</linearGradient>
<clipPath id="clip0">
<rect width="995.001" height="836.749" fill="white"/>
</clipPath>
</defs>
</svg>
